<svg version="1.1" id="Layer_1" xmlns="http://www.w3.org/2000/svg" xmlns:xlink="http://www.w3.org/1999/xlink" x="0px" y="0px"
	 width="100%" viewBox="0 0 500 500" enable-background="new 0 0 500 500" xml:space="preserve">
<path fill="#185179" opacity="1.000000" stroke="none" 
	d="
M316.000000,501.000000 
	C210.666687,501.000000 105.833382,501.000000 1.000056,501.000000 
	C1.000037,334.333405 1.000037,167.666794 1.000019,1.000146 
	C167.666565,1.000097 334.333130,1.000097 500.999756,1.000049 
	C500.999847,167.666519 500.999847,334.333038 500.999939,500.999786 
	C439.500000,501.000000 378.000000,501.000000 316.000000,501.000000 
M273.003448,146.551010 
	C272.856232,146.317352 272.709015,146.083694 272.561798,145.850037 
	C272.433838,146.034592 272.305847,146.219147 272.177856,146.403687 
	C272.468262,146.586533 272.758636,146.769379 272.909088,147.672089 
	C274.055969,149.433777 274.850800,151.728790 276.459564,152.790787 
	C277.779694,153.662247 280.067688,153.067505 281.926666,153.122696 
	C281.800568,151.096512 282.343689,148.620392 281.366241,147.166611 
	C280.321533,145.612793 277.842468,145.023361 275.820099,144.050507 
	C275.820099,144.050507 275.901764,143.770004 275.901764,143.770004 
	C275.901764,143.770004 275.926239,143.993210 276.012848,144.673019 
	C274.994629,145.463226 273.976379,146.253433 273.003448,146.551010 
M222.803131,138.563583 
	C222.949600,138.486862 223.166397,138.443054 223.222183,138.323883 
	C223.274780,138.211563 223.208450,137.935562 223.108078,137.875198 
	C219.001083,135.405563 214.884323,132.952179 209.985306,130.029266 
	C211.793091,137.036896 214.789566,141.179703 221.136368,141.985321 
	C221.545517,142.037262 221.877304,142.698578 221.404190,143.054199 
	C217.469666,144.334427 213.535126,145.614670 208.953598,147.065170 
	C204.577789,150.661743 200.201981,154.258316 195.206543,158.104431 
	C178.393616,175.032623 180.059158,201.127930 192.811432,216.676590 
	C189.182831,205.812622 189.332977,196.405792 194.219604,186.738907 
	C199.549057,181.478027 204.878494,176.217163 210.888275,170.742554 
	C218.534302,167.140213 226.540817,165.470566 235.033844,165.439835 
	C241.930527,165.414886 247.956116,163.293472 252.027206,156.899002 
	C255.509308,151.429703 255.498352,149.733063 249.823761,146.627640 
	C241.432480,142.035538 232.427429,141.438095 222.501755,142.692841 
	C222.092255,141.678650 221.682755,140.664474 221.800430,139.162582 
	C221.972656,138.996323 222.144897,138.830063 222.803131,138.563583 
M304.267426,194.068802 
	C303.448303,194.697891 302.629211,195.326981 301.708282,196.034241 
	C305.483734,198.883331 308.896515,198.285934 311.336243,195.153900 
	C314.283905,191.369797 318.180756,187.649017 316.318665,181.217026 
	C316.862976,178.792709 317.407257,176.368378 317.885162,173.972504 
	C317.885162,173.972504 317.885132,174.044708 318.517639,173.469650 
	C320.541870,162.128403 316.996155,152.359634 309.886902,142.926163 
	C303.950775,137.266602 298.014618,131.607040 291.706360,125.382675 
	C289.786835,123.924820 287.867310,122.466957 286.713318,120.505791 
	C290.761749,121.358131 294.689758,121.342010 297.627197,117.926933 
	C298.483856,116.930992 299.212585,115.105698 298.870453,114.014824 
	C298.571289,113.060959 296.721252,112.104958 295.494476,112.017471 
	C290.861572,111.687088 286.297119,111.804367 283.195953,116.292664 
	C282.549988,117.227577 281.075165,117.589836 279.214874,118.092514 
	C273.645660,116.749367 268.109436,115.241997 262.496918,114.114426 
	C257.908264,113.192543 253.362991,114.415810 251.220612,118.548195 
	C249.051025,122.733101 253.061722,125.392479 256.021820,128.685226 
	C260.015015,131.741928 264.008240,134.798615 268.659241,138.147827 
	C270.947998,139.122833 273.244690,140.079758 275.524200,141.075928 
	C286.469025,145.858871 296.401428,152.028046 304.127045,161.391068 
	C311.010925,169.733887 313.300720,178.570877 307.231537,188.881546 
	C306.727631,190.083267 306.223724,191.285004 305.085541,193.024780 
	C304.883698,193.214890 304.681885,193.405014 304.267426,194.068802 
M162.643906,349.558197 
	C159.704605,349.558197 156.765320,349.558197 153.110489,349.558197 
	C153.536469,354.021881 153.528275,357.848053 154.338150,361.492401 
	C155.511139,366.770691 159.516342,369.246155 166.076767,369.488922 
	C172.165436,369.714264 176.221863,367.397522 177.757339,362.234680 
	C180.182037,354.082001 179.612167,346.456879 172.920013,340.207092 
	C170.250900,337.714417 167.505890,335.246429 165.226349,332.419708 
	C164.250763,331.209991 164.279938,329.122864 164.101807,327.408539 
	C164.074692,327.147675 165.404037,326.745880 166.105988,326.409302 
	C166.766953,327.931213 167.419220,329.457062 168.096802,330.971527 
	C168.221451,331.250183 168.448669,331.482941 168.630844,331.740112 
	C171.903946,331.740112 175.160172,331.740112 178.657700,331.740112 
	C178.392746,326.054413 178.089645,320.552917 172.277542,318.031677 
	C167.377014,315.905884 162.041077,315.489899 157.665131,319.204987 
	C152.939651,323.216858 152.726532,328.858032 154.215851,334.358521 
	C154.874588,336.791412 156.687866,339.017487 158.331070,341.051422 
	C160.407608,343.621735 162.845428,345.900208 164.294479,348.866150 
	C164.020767,349.059052 163.747040,349.251923 162.643906,349.558197 
M244.967850,200.738998 
	C246.475189,205.766876 247.091873,211.317764 249.673721,215.714706 
	C255.190552,225.109940 260.366394,234.295303 257.946381,245.937408 
	C265.597015,236.240662 271.549377,226.049255 269.750458,213.269302 
	C268.434418,203.919876 267.136292,194.485260 264.613831,185.427322 
	C263.542389,181.579910 259.633636,178.313217 256.501526,175.319061 
	C254.230286,173.147842 251.815262,173.931381 249.902832,176.769272 
	C245.305679,183.591034 243.484177,190.914841 244.384521,199.406387 
	C238.069092,200.618607 236.982819,206.146988 234.329224,210.852722 
	C241.648941,211.075806 243.537933,209.382782 244.055664,202.881287 
	C244.137024,201.859802 244.699951,200.876678 244.967850,200.738998 
M308.434082,348.132782 
	C309.015442,344.733307 309.596832,341.333862 310.178223,337.934387 
	C310.519867,337.972565 310.861481,338.010712 311.203125,338.048889 
	C311.203125,348.305206 311.203125,358.561554 311.203125,368.648315 
	C314.536682,368.648315 317.434692,368.648315 320.350739,368.648315 
	C320.350739,351.355499 320.350739,334.428101 320.350739,317.293152 
	C314.989868,317.293152 309.912506,317.293152 304.576599,317.293152 
	C303.250488,326.302948 301.953461,335.115204 300.656403,343.927460 
	C300.281891,343.883240 299.907349,343.839020 299.532837,343.794800 
	C298.342560,334.990875 297.152283,326.186951 295.952423,317.311951 
	C290.587921,317.311951 285.501251,317.311951 280.303192,317.311951 
	C280.303192,334.638916 280.303192,351.696655 280.303192,368.840576 
	C283.393372,368.840576 286.183411,368.840576 289.673859,368.840576 
	C289.673859,359.264740 289.673859,349.839264 289.673859,340.413788 
	C290.034302,340.402222 290.394714,340.390625 290.755157,340.379059 
	C292.398926,349.812531 294.042725,359.246002 295.709717,368.812622 
	C298.962921,368.812622 301.900177,368.812622 305.132294,368.812622 
	C306.185181,362.118530 307.217926,355.552307 308.434082,348.132782 
M199.012451,368.973572 
	C201.946487,368.973572 204.880524,368.973572 207.767212,368.973572 
	C207.767212,351.388733 207.767212,334.356140 207.767212,317.259766 
	C204.341080,317.259766 201.245956,317.259766 197.768845,317.259766 
	C197.768845,322.279327 197.652603,327.091675 197.807358,331.895233 
	C197.921509,335.437775 196.462646,336.259613 192.846558,334.996399 
	C192.846558,329.133881 192.846558,323.236237 192.846558,317.242584 
	C189.212158,317.242584 186.108963,317.242584 182.725067,317.242584 
	C182.725067,334.496246 182.725067,351.549988 182.725067,368.714172 
	C186.183319,368.714172 189.407440,368.714172 192.958176,368.714172 
	C192.958176,362.127747 193.103836,355.831482 192.903778,349.546234 
	C192.782928,345.749725 194.051147,344.686890 198.160446,346.525940 
	C198.160446,353.784790 198.160446,361.238129 199.012451,368.973572 
M260.123047,361.665009 
	C262.069153,361.314697 264.015259,360.964386 266.137268,360.582428 
	C266.565765,363.838867 266.885468,366.268341 267.207397,368.714905 
	C270.505859,368.714905 273.584351,368.714905 276.983368,368.714905 
	C275.316772,351.379639 273.681549,334.370697 272.050079,317.400574 
	C265.934326,317.400574 260.193146,317.400574 254.316132,317.400574 
	C252.660904,334.710968 251.038239,351.680817 249.407944,368.730408 
	C253.101410,368.730408 256.186432,368.730408 259.555817,368.730408 
	C259.718719,366.512390 259.862854,364.549438 260.123047,361.665009 
M232.579361,238.176498 
	C230.698059,238.282639 228.816757,238.388779 226.082596,238.543030 
	C229.666901,240.392975 232.267868,241.735382 235.864212,243.591537 
	C218.779602,247.417389 211.380646,256.410645 208.434128,275.894135 
	C210.029205,274.799683 211.295609,273.826935 212.657471,273.014069 
	C219.059860,269.192444 225.361511,265.168610 231.977356,261.756348 
	C234.259109,260.579468 237.346680,260.964996 240.066162,260.636810 
	C240.356628,261.482910 240.647095,262.328979 240.937561,263.175079 
	C237.689255,265.145294 234.440933,267.115540 231.179276,269.093872 
	C234.743378,271.125214 238.544144,270.647797 241.838913,267.956940 
	C248.892075,262.196564 252.600891,254.391785 255.079956,245.945480 
	C252.549118,244.706787 250.493942,243.700882 248.516418,242.732986 
	C249.243454,241.891693 249.866745,241.170456 250.185989,240.801041 
	C244.500381,239.942078 238.959702,239.104996 232.579361,238.176498 
M243.118668,345.546661 
	C251.636536,344.986877 244.542023,338.778656 247.953705,335.734070 
	C243.571091,335.430328 240.502014,335.217621 237.540787,335.012390 
	C237.540787,332.278931 237.540787,330.010986 237.540787,327.463013 
	C241.022827,327.272461 244.238739,327.096497 247.322006,326.927765 
	C247.322006,323.408173 247.322006,320.341888 247.322006,317.287903 
	C240.339249,317.287903 233.745377,317.287903 227.057693,317.287903 
	C227.057693,334.593140 227.057693,351.657074 227.057693,368.686829 
	C230.538361,368.686829 233.764114,368.686829 237.390793,368.686829 
	C237.390793,360.952087 237.390793,353.532990 237.390793,345.859894 
	C239.244949,345.738525 240.703812,345.643036 243.118668,345.546661 
M116.807991,363.237885 
	C116.807991,365.049469 116.807991,366.861053 116.807991,368.754028 
	C120.427094,368.754028 123.679306,368.754028 127.311432,368.754028 
	C127.311432,361.072296 127.311432,353.638916 127.311432,345.843628 
	C130.714417,345.639648 133.762314,345.456970 136.657120,345.283478 
	C136.657120,341.758453 136.657120,338.700714 136.657120,335.138519 
	C133.364578,335.138519 130.450989,335.138519 127.675674,335.138519 
	C127.675674,332.217651 127.675674,329.835907 127.675674,327.385925 
	C131.205276,327.230896 134.308243,327.094635 137.352966,326.960907 
	C137.352966,323.492981 137.352966,320.419464 137.352966,317.245056 
	C130.393845,317.245056 123.791245,317.245056 116.808006,317.245056 
	C116.808006,332.391418 116.808006,347.343414 116.807991,363.237885 
M363.334229,328.301605 
	C366.730988,341.593842 370.582794,354.814880 368.834198,368.790649 
	C372.607483,368.790649 375.541412,368.790649 379.252594,368.790649 
	C376.699738,350.798218 383.985840,334.474701 386.941162,317.227966 
	C383.522552,317.227966 380.398346,317.227966 376.921875,317.227966 
	C376.098938,321.622375 375.279755,325.996796 374.460541,330.371216 
	C374.112823,330.330505 373.765076,330.289795 373.417358,330.249084 
	C372.618652,325.930176 371.819977,321.611298 371.042175,317.405396 
	C367.533112,317.405396 364.329437,317.405396 360.868195,317.405396 
	C361.686676,321.033569 362.414764,324.260925 363.334229,328.301605 
M349.163177,330.508362 
	C349.163177,326.100220 349.163177,321.692108 349.163177,317.348816 
	C345.335724,317.348816 342.254822,317.348816 339.134979,317.348816 
	C339.134979,334.660858 339.134979,351.677704 339.134979,368.708191 
	C346.184723,368.708191 352.914490,368.708191 359.550751,368.708191 
	C359.550751,365.695709 359.550751,362.991089 359.550751,359.831238 
	C355.919250,359.831238 352.681244,359.831238 349.163177,359.831238 
	C349.163177,350.077606 349.163177,340.791321 349.163177,330.508362 
M334.786987,364.280640 
	C334.786987,348.679810 334.786987,333.079010 334.786987,317.249725 
	C331.130341,317.249725 328.048737,317.249725 324.692352,317.249725 
	C324.692352,334.530640 324.692352,351.599060 324.692352,369.037842 
	C327.103027,369.037842 329.261444,368.856689 331.376984,369.080536 
	C334.506805,369.411743 335.089539,367.781982 334.786987,364.280640 
M140.320465,317.973572 
	C140.320465,334.869110 140.320465,351.764679 140.320465,368.771027 
	C143.833145,368.771027 146.912338,368.771027 150.098907,368.771027 
	C150.098907,351.468079 150.098907,334.409332 150.098907,317.272156 
	C146.858353,317.272156 143.888000,317.272156 140.320465,317.973572 
M210.958069,216.748352 
	C205.636597,213.875702 200.315140,211.003052 194.775925,208.012863 
	C192.467026,215.100021 198.981628,226.422470 206.994339,230.878174 
	C206.685150,229.083984 206.402313,227.442780 206.082062,225.584381 
	C209.917007,226.842972 213.282242,227.947418 216.647491,229.051865 
	C216.822830,228.765533 216.998169,228.479202 217.173508,228.192871 
	C213.393204,224.783203 209.612900,221.373535 205.024338,217.234833 
	C207.731537,217.109665 209.046707,217.048859 210.958069,216.748352 
M274.190796,201.359634 
	C277.955811,199.578079 281.720856,197.796524 286.004761,195.769440 
	C273.121399,189.109680 272.362732,188.952301 268.253143,191.752762 
	C268.968445,193.764496 269.488190,195.847168 270.442047,197.707245 
	C271.171356,199.129486 272.449768,200.270187 274.190796,201.359634 
M226.423431,180.008102 
	C226.823547,179.716995 227.364822,179.510651 227.599365,179.120087 
	C228.624786,177.412567 230.782227,174.720261 230.298767,174.086472 
	C228.904114,172.258209 226.517426,170.442490 224.351883,170.213272 
	C222.954208,170.065338 220.688843,172.436172 219.834335,174.179214 
	C218.582138,176.733475 218.245071,179.736359 217.181396,183.849976 
	C220.791687,182.383957 223.287674,181.370422 226.423431,180.008102 
M206.017151,398.099213 
	C206.819519,397.934082 207.621902,397.768951 208.553757,397.577179 
	C208.222015,396.977997 208.175079,396.755798 208.069824,396.723419 
	C206.031006,396.097198 203.985367,395.493225 201.941147,394.884705 
	C203.748444,393.832672 205.555756,392.780640 207.874680,391.430786 
	C206.380371,391.228943 205.281036,391.253693 204.321182,390.899933 
	C203.440216,390.575287 202.709595,389.842651 201.912735,389.289795 
	C202.761551,388.765869 203.551544,388.055389 204.473862,387.764648 
	C205.664688,387.389221 206.961334,387.349365 208.212402,387.165009 
	C208.162079,386.835815 208.111755,386.506622 208.061432,386.177429 
	C205.364609,386.177429 202.667801,386.177429 199.976807,386.177429 
	C199.976807,390.276581 199.976807,394.028137 199.976807,398.100677 
	C201.889633,398.100677 203.532013,398.100677 206.017151,398.099213 
M265.595886,393.134399 
	C266.157288,396.615356 268.201782,399.252197 271.601501,397.751801 
	C273.480988,396.922363 275.212555,393.428864 275.130859,391.205353 
	C275.062805,389.353821 272.443634,386.339783 270.618073,386.063599 
	C266.471710,385.436218 265.662048,388.959625 265.595886,393.134399 
M253.127274,388.092438 
	C254.620972,388.324615 256.114655,388.556824 257.608368,388.789001 
	C256.902496,390.162567 256.362579,391.660553 255.449295,392.878571 
	C254.272339,394.448242 252.796371,395.793701 251.039902,397.673828 
	C254.761780,397.673828 257.402893,397.673828 260.044006,397.673828 
	C259.460938,396.682373 258.785034,396.439880 258.091888,396.266174 
	C257.377136,396.087036 256.645599,395.974884 255.494278,395.749969 
	C256.883514,394.148773 258.496887,393.062256 258.876007,391.645508 
	C259.296600,390.073669 259.182617,387.708466 258.238403,386.571442 
	C256.753632,384.783417 253.781479,385.779968 253.127274,388.092438 
M297.684845,393.731567 
	C296.620667,394.875183 295.556488,396.018829 294.097260,397.587036 
	C297.642090,397.587036 300.341278,397.587036 303.040466,397.587036 
	C303.057312,397.312866 303.074127,397.038696 303.090973,396.764526 
	C301.693237,396.432495 300.295502,396.100464 298.738281,395.730530 
	C300.338196,392.580780 305.475006,390.613037 301.451996,386.819244 
	C300.287933,385.721558 297.212463,386.650787 295.013245,386.650787 
	C295.084167,386.945312 295.155060,387.239838 295.225952,387.534393 
	C297.002106,387.915497 298.778229,388.296631 300.554382,388.677765 
	C299.770416,390.170044 298.986420,391.662354 297.684845,393.731567 
M236.260651,387.733551 
	C236.901443,387.458923 237.542236,387.184326 238.183029,386.909698 
	C238.128784,386.693542 238.074539,386.477386 238.020294,386.261230 
	C234.825821,386.261230 231.631363,386.261230 228.436905,386.261230 
	C235.897217,387.797424 229.836960,395.003113 233.499496,398.244629 
	C234.208862,394.517151 234.844254,391.178345 236.260651,387.733551 
M285.681580,391.922455 
	C283.755066,393.363403 281.828552,394.804382 279.902008,396.245331 
	C280.320557,396.735199 280.739075,397.225098 281.157623,397.714966 
	C283.884827,397.714966 286.612061,397.714966 289.339294,397.714966 
	C289.379913,397.450043 289.420532,397.185120 289.461151,396.920197 
	C288.055298,396.510376 286.649414,396.100525 286.499268,396.056763 
	C287.061951,392.802612 288.776062,389.275635 287.750885,386.962708 
	C286.789581,384.793732 283.097809,384.952087 280.746582,387.940552 
	C286.832947,387.585266 286.832947,387.585266 285.681580,391.922455 
M220.205048,385.810211 
	C218.276566,386.875580 216.348083,387.940948 214.419601,389.006287 
	C216.026138,390.327576 217.608795,391.679382 219.247086,392.960052 
	C220.458817,393.907196 221.743027,394.761627 222.994919,395.657410 
	C223.191055,395.414673 223.387177,395.171967 223.583313,394.929230 
	C221.283920,393.014191 218.984528,391.099121 215.728714,388.387512 
	C218.722549,388.025574 220.713516,387.784851 223.605652,387.435211 
	C222.192856,386.622406 221.568115,386.262970 220.205048,385.810211 
z"/>
<path fill="#F9FAFB" opacity="1.000000" stroke="none" 
	d="
M308.342407,348.559418 
	C307.217926,355.552307 306.185181,362.118530 305.132294,368.812622 
	C301.900177,368.812622 298.962921,368.812622 295.709717,368.812622 
	C294.042725,359.246002 292.398926,349.812531 290.755157,340.379059 
	C290.394714,340.390625 290.034302,340.402222 289.673859,340.413788 
	C289.673859,349.839264 289.673859,359.264740 289.673859,368.840576 
	C286.183411,368.840576 283.393372,368.840576 280.303192,368.840576 
	C280.303192,351.696655 280.303192,334.638916 280.303192,317.311951 
	C285.501251,317.311951 290.587921,317.311951 295.952423,317.311951 
	C297.152283,326.186951 298.342560,334.990875 299.532837,343.794800 
	C299.907349,343.839020 300.281891,343.883240 300.656403,343.927460 
	C301.953461,335.115204 303.250488,326.302948 304.576599,317.293152 
	C309.912506,317.293152 314.989868,317.293152 320.350739,317.293152 
	C320.350739,334.428101 320.350739,351.355499 320.350739,368.648315 
	C317.434692,368.648315 314.536682,368.648315 311.203125,368.648315 
	C311.203125,358.561554 311.203125,348.305206 311.203125,338.048889 
	C310.861481,338.010712 310.519867,337.972565 310.178223,337.934387 
	C309.596832,341.333862 309.015442,344.733307 308.342407,348.559418 
z"/>
<path fill="#E6E7E8" opacity="1.000000" stroke="none" 
	d="
M193.792221,187.307816 
	C189.332977,196.405792 189.182831,205.812622 192.811432,216.676590 
	C180.059158,201.127930 178.393616,175.032623 195.690582,158.332001 
	C199.611160,163.689850 203.492905,159.711975 207.170258,159.049072 
	C216.084595,157.442123 216.613266,155.871597 210.903442,148.400238 
	C210.501236,147.873962 210.036346,147.395569 209.600601,146.894913 
	C213.535126,145.614670 217.469666,144.334427 222.057281,143.049271 
	C222.710373,143.044342 223.161530,142.926132 223.161530,142.926132 
	C232.427429,141.438095 241.432480,142.035538 249.823761,146.627640 
	C255.498352,149.733063 255.509308,151.429703 252.027206,156.899002 
	C247.956116,163.293472 241.930527,165.414886 235.033844,165.439835 
	C226.540817,165.470566 218.534302,167.140213 210.262817,170.527924 
	C202.719589,168.925247 198.732285,169.303238 197.547165,177.573303 
	C197.369949,178.809906 195.549545,179.963547 194.276321,180.849503 
	C192.883774,181.818512 191.243912,182.432129 188.755325,183.680450 
	C190.999176,185.296371 192.395691,186.302094 193.792221,187.307816 
M229.356735,151.783936 
	C228.150253,152.824905 225.902405,153.882355 225.918594,154.903961 
	C225.986588,159.194778 230.037201,159.520706 232.966263,160.691132 
	C234.032791,161.117310 236.425537,160.846588 236.664337,160.261566 
	C237.621979,157.915558 238.427933,155.289062 238.253342,152.840179 
	C238.204559,152.155884 234.618576,151.632294 232.616501,151.225677 
	C231.860458,151.072113 230.994873,151.457809 229.356735,151.783936 
z"/>
<path fill="#E8E8E8" opacity="1.000000" stroke="none" 
	d="
M285.947784,121.009102 
	C287.867310,122.466957 289.786835,123.924820 291.539703,125.774918 
	C285.801788,128.023209 285.868805,128.353928 289.860352,132.806488 
	C294.321045,137.782410 298.291046,143.198624 302.759888,148.166626 
	C304.042969,149.593033 306.313080,150.131607 308.130615,151.077255 
	C308.748505,149.387451 309.439240,147.719284 309.950897,145.997910 
	C310.177338,145.235916 310.041168,144.366150 310.069580,143.545319 
	C316.996155,152.359634 320.541870,162.128403 318.201904,173.372375 
	C315.984131,169.808426 317.135681,164.261932 310.380951,162.898956 
	C312.186676,167.822296 312.646698,172.442444 317.951538,173.944046 
	C317.407257,176.368378 316.862976,178.792709 315.964081,181.793549 
	C314.344177,183.998810 313.273071,185.851898 311.743744,187.175659 
	C310.761658,188.025711 309.104919,188.096390 307.750580,188.516418 
	C313.300720,178.570877 311.010925,169.733887 304.127045,161.391068 
	C296.401428,152.028046 286.469025,145.858871 275.524200,141.075928 
	C273.244690,140.079758 270.947998,139.122833 268.380371,137.600891 
	C267.490540,127.802940 262.519379,124.218948 255.671524,128.092529 
	C253.061722,125.392479 249.051025,122.733101 251.220612,118.548195 
	C253.362991,114.415810 257.908264,113.192543 262.496918,114.114426 
	C268.109436,115.241997 273.645660,116.749367 279.694092,118.447922 
	C281.054321,119.189667 281.935333,119.575996 282.988464,120.317902 
	C284.117920,120.804489 285.075195,120.935501 286.026428,121.029839 
	C286.020386,120.993164 285.947784,121.009102 285.947784,121.009102 
z"/>
<path fill="#F8FAFB" opacity="1.000000" stroke="none" 
	d="
M198.586456,368.832520 
	C198.160446,361.238129 198.160446,353.784790 198.160446,346.525940 
	C194.051147,344.686890 192.782928,345.749725 192.903778,349.546234 
	C193.103836,355.831482 192.958176,362.127747 192.958176,368.714172 
	C189.407440,368.714172 186.183319,368.714172 182.725067,368.714172 
	C182.725067,351.549988 182.725067,334.496246 182.725067,317.242584 
	C186.108963,317.242584 189.212158,317.242584 192.846558,317.242584 
	C192.846558,323.236237 192.846558,329.133881 192.846558,334.996399 
	C196.462646,336.259613 197.921509,335.437775 197.807358,331.895233 
	C197.652603,327.091675 197.768845,322.279327 197.768845,317.259766 
	C201.245956,317.259766 204.341080,317.259766 207.767212,317.259766 
	C207.767212,334.356140 207.767212,351.388733 207.767212,368.973572 
	C204.880524,368.973572 201.946487,368.973572 198.586456,368.832520 
z"/>
<path fill="#EE603B" opacity="1.000000" stroke="none" 
	d="
M245.011749,199.029358 
	C243.484177,190.914841 245.305679,183.591034 249.902832,176.769272 
	C251.815262,173.931381 254.230286,173.147842 256.501526,175.319061 
	C259.633636,178.313217 263.542389,181.579910 264.613831,185.427322 
	C267.136292,194.485260 268.434418,203.919876 269.750458,213.269302 
	C271.549377,226.049255 265.597015,236.240662 257.946381,245.937408 
	C260.366394,234.295303 255.190552,225.109940 249.673721,215.714706 
	C247.091873,211.317764 246.475189,205.766876 245.007416,200.095459 
	C245.046967,199.451935 245.011749,199.029358 245.011749,199.029358 
z"/>
<path fill="#F9FAFB" opacity="1.000000" stroke="none" 
	d="
M260.065033,362.125732 
	C259.862854,364.549438 259.718719,366.512390 259.555817,368.730408 
	C256.186432,368.730408 253.101410,368.730408 249.407944,368.730408 
	C251.038239,351.680817 252.660904,334.710968 254.316132,317.400574 
	C260.193146,317.400574 265.934326,317.400574 272.050079,317.400574 
	C273.681549,334.370697 275.316772,351.379639 276.983368,368.714905 
	C273.584351,368.714905 270.505859,368.714905 267.207397,368.714905 
	C266.885468,366.268341 266.565765,363.838867 266.137268,360.582428 
	C264.015259,360.964386 262.069153,361.314697 260.065033,362.125732 
M265.139221,347.907288 
	C264.681183,342.655151 264.223175,337.403015 263.765167,332.150848 
	C263.295624,332.188934 262.826080,332.226990 262.356567,332.265076 
	C261.887421,338.771057 261.418274,345.277069 260.944153,351.851776 
	C264.040894,352.606354 265.928802,352.347534 265.139221,347.907288 
z"/>
<path fill="#F9FAFB" opacity="1.000000" stroke="none" 
	d="
M165.127411,348.304565 
	C162.845428,345.900208 160.407608,343.621735 158.331070,341.051422 
	C156.687866,339.017487 154.874588,336.791412 154.215851,334.358521 
	C152.726532,328.858032 152.939651,323.216858 157.665131,319.204987 
	C162.041077,315.489899 167.377014,315.905884 172.277542,318.031677 
	C178.089645,320.552917 178.392746,326.054413 178.657700,331.740112 
	C175.160172,331.740112 171.903946,331.740112 168.630844,331.740112 
	C168.448669,331.482941 168.221451,331.250183 168.096802,330.971527 
	C167.419220,329.457062 166.766953,327.931213 166.105988,326.409302 
	C165.404037,326.745880 164.074692,327.147675 164.101807,327.408539 
	C164.279938,329.122864 164.250763,331.209991 165.226349,332.419708 
	C167.505890,335.246429 170.250900,337.714417 172.920013,340.207092 
	C179.612167,346.456879 180.182037,354.082001 177.757339,362.234680 
	C176.221863,367.397522 172.165436,369.714264 166.076767,369.488922 
	C159.516342,369.246155 155.511139,366.770691 154.338150,361.492401 
	C153.528275,357.848053 153.536469,354.021881 153.110489,349.558197 
	C156.765320,349.558197 159.704605,349.558197 163.187180,349.916901 
	C163.805283,352.601715 163.641174,354.972900 164.067642,357.232635 
	C164.248840,358.192810 165.667480,358.919403 166.523758,359.752167 
	C167.184418,358.900665 168.559204,357.846893 168.384995,357.231873 
	C167.524124,354.192383 166.253525,351.268921 165.127411,348.304565 
z"/>
<path fill="#EC5F3C" opacity="1.000000" stroke="none" 
	d="
M232.999207,238.222214 
	C238.959702,239.104996 244.500381,239.942078 250.185989,240.801041 
	C249.866745,241.170456 249.243454,241.891693 248.516418,242.732986 
	C250.493942,243.700882 252.549118,244.706787 255.079956,245.945480 
	C252.600891,254.391785 248.892075,262.196564 241.838913,267.956940 
	C238.544144,270.647797 234.743378,271.125214 231.179276,269.093872 
	C234.440933,267.115540 237.689255,265.145294 240.937561,263.175079 
	C240.647095,262.328979 240.356628,261.482910 240.066162,260.636810 
	C237.346680,260.964996 234.259109,260.579468 231.977356,261.756348 
	C225.361511,265.168610 219.059860,269.192444 212.657471,273.014069 
	C211.295609,273.826935 210.029205,274.799683 208.434128,275.894135 
	C211.380646,256.410645 218.779602,247.417389 235.864212,243.591537 
	C232.267868,241.735382 229.666901,240.392975 226.082596,238.543030 
	C228.816757,238.388779 230.698059,238.282639 232.999207,238.222214 
z"/>
<path fill="#FAFCFC" opacity="1.000000" stroke="none" 
	d="
M242.640686,345.547119 
	C240.703812,345.643036 239.244949,345.738525 237.390793,345.859894 
	C237.390793,353.532990 237.390793,360.952087 237.390793,368.686829 
	C233.764114,368.686829 230.538361,368.686829 227.057693,368.686829 
	C227.057693,351.657074 227.057693,334.593140 227.057693,317.287903 
	C233.745377,317.287903 240.339249,317.287903 247.322006,317.287903 
	C247.322006,320.341888 247.322006,323.408173 247.322006,326.927765 
	C244.238739,327.096497 241.022827,327.272461 237.540787,327.463013 
	C237.540787,330.010986 237.540787,332.278931 237.540787,335.012390 
	C240.502014,335.217621 243.571091,335.430328 247.953705,335.734070 
	C244.542023,338.778656 251.636536,344.986877 242.640686,345.547119 
z"/>
<path fill="#FAFCFC" opacity="1.000000" stroke="none" 
	d="
M116.807999,362.766663 
	C116.808006,347.343414 116.808006,332.391418 116.808006,317.245056 
	C123.791245,317.245056 130.393845,317.245056 137.352966,317.245056 
	C137.352966,320.419464 137.352966,323.492981 137.352966,326.960907 
	C134.308243,327.094635 131.205276,327.230896 127.675674,327.385925 
	C127.675674,329.835907 127.675674,332.217651 127.675674,335.138519 
	C130.450989,335.138519 133.364578,335.138519 136.657120,335.138519 
	C136.657120,338.700714 136.657120,341.758453 136.657120,345.283478 
	C133.762314,345.456970 130.714417,345.639648 127.311432,345.843628 
	C127.311432,353.638916 127.311432,361.072296 127.311432,368.754028 
	C123.679306,368.754028 120.427094,368.754028 116.807991,368.754028 
	C116.807991,366.861053 116.807991,365.049469 116.807999,362.766663 
z"/>
<path fill="#F9FAFB" opacity="1.000000" stroke="none" 
	d="
M363.238525,327.894958 
	C362.414764,324.260925 361.686676,321.033569 360.868195,317.405396 
	C364.329437,317.405396 367.533112,317.405396 371.042175,317.405396 
	C371.819977,321.611298 372.618652,325.930176 373.417358,330.249084 
	C373.765076,330.289795 374.112823,330.330505 374.460541,330.371216 
	C375.279755,325.996796 376.098938,321.622375 376.921875,317.227966 
	C380.398346,317.227966 383.522552,317.227966 386.941162,317.227966 
	C383.985840,334.474701 376.699738,350.798218 379.252594,368.790649 
	C375.541412,368.790649 372.607483,368.790649 368.834198,368.790649 
	C370.582794,354.814880 366.730988,341.593842 363.238525,327.894958 
z"/>
<path fill="#FEFEFE" opacity="1.000000" stroke="none" 
	d="
M349.163177,331.006683 
	C349.163177,340.791321 349.163177,350.077606 349.163177,359.831238 
	C352.681244,359.831238 355.919250,359.831238 359.550751,359.831238 
	C359.550751,362.991089 359.550751,365.695709 359.550751,368.708191 
	C352.914490,368.708191 346.184723,368.708191 339.134979,368.708191 
	C339.134979,351.677704 339.134979,334.660858 339.134979,317.348816 
	C342.254822,317.348816 345.335724,317.348816 349.163177,317.348816 
	C349.163177,321.692108 349.163177,326.100220 349.163177,331.006683 
z"/>
<path fill="#EDF1F4" opacity="1.000000" stroke="none" 
	d="
M334.786713,364.753723 
	C335.089539,367.781982 334.506805,369.411743 331.376984,369.080536 
	C329.261444,368.856689 327.103027,369.037842 324.692352,369.037842 
	C324.692352,351.599060 324.692352,334.530640 324.692352,317.249725 
	C328.048737,317.249725 331.130341,317.249725 334.786987,317.249725 
	C334.786987,333.079010 334.786987,348.679810 334.786713,364.753723 
z"/>
<path fill="#F8FAFB" opacity="1.000000" stroke="none" 
	d="
M140.619049,317.622864 
	C143.888000,317.272156 146.858353,317.272156 150.098907,317.272156 
	C150.098907,334.409332 150.098907,351.468079 150.098907,368.771027 
	C146.912338,368.771027 143.833145,368.771027 140.320465,368.771027 
	C140.320465,351.764679 140.320465,334.869110 140.619049,317.622864 
z"/>
<path fill="#E1E4E6" opacity="1.000000" stroke="none" 
	d="
M210.659973,216.868195 
	C209.046707,217.048859 207.731537,217.109665 205.024338,217.234833 
	C209.612900,221.373535 213.393204,224.783203 217.173508,228.192871 
	C216.998169,228.479202 216.822830,228.765533 216.647491,229.051865 
	C213.282242,227.947418 209.917007,226.842972 206.082062,225.584381 
	C206.402313,227.442780 206.685150,229.083984 206.994339,230.878174 
	C198.981628,226.422470 192.467026,215.100021 194.775925,208.012863 
	C200.315140,211.003052 205.636597,213.875702 210.659973,216.868195 
z"/>
<path fill="#D0332A" opacity="1.000000" stroke="none" 
	d="
M309.978271,143.235748 
	C310.041168,144.366150 310.177338,145.235916 309.950897,145.997910 
	C309.439240,147.719284 308.748505,149.387451 308.130615,151.077255 
	C306.313080,150.131607 304.042969,149.593033 302.759888,148.166626 
	C298.291046,143.198624 294.321045,137.782410 289.860352,132.806488 
	C285.868805,128.353928 285.801788,128.023209 291.725769,126.057320 
	C298.014618,131.607040 303.950775,137.266602 309.978271,143.235748 
z"/>
<path fill="#373636" opacity="1.000000" stroke="none" 
	d="
M209.277100,146.980042 
	C210.036346,147.395569 210.501236,147.873962 210.903442,148.400238 
	C216.613266,155.871597 216.084595,157.442123 207.170258,159.049072 
	C203.492905,159.711975 199.611160,163.689850 196.000397,158.207245 
	C200.201981,154.258316 204.577789,150.661743 209.277100,146.980042 
z"/>
<path fill="#D9DEE2" opacity="1.000000" stroke="none" 
	d="
M282.816345,119.962326 
	C281.935333,119.575996 281.054321,119.189667 280.077820,118.509674 
	C281.075165,117.589836 282.549988,117.227577 283.195953,116.292664 
	C286.297119,111.804367 290.861572,111.687088 295.494476,112.017471 
	C296.721252,112.104958 298.571289,113.060959 298.870453,114.014824 
	C299.212585,115.105698 298.483856,116.930992 297.627197,117.926933 
	C294.689758,121.342010 290.761749,121.358131 286.330566,120.757446 
	C285.947784,121.009102 286.020386,120.993164 285.979614,120.633743 
	C284.898010,120.170334 283.857178,120.066330 282.816345,119.962326 
z"/>
<path fill="#E35F3F" opacity="1.000000" stroke="none" 
	d="
M273.837341,201.447876 
	C272.449768,200.270187 271.171356,199.129486 270.442047,197.707245 
	C269.488190,195.847168 268.968445,193.764496 268.253143,191.752762 
	C272.362732,188.952301 273.121399,189.109680 286.004761,195.769440 
	C281.720856,197.796524 277.955811,199.578079 273.837341,201.447876 
z"/>
<path fill="#E1E4E6" opacity="1.000000" stroke="none" 
	d="
M226.103546,180.182495 
	C223.287674,181.370422 220.791687,182.383957 217.181396,183.849976 
	C218.245071,179.736359 218.582138,176.733475 219.834335,174.179214 
	C220.688843,172.436172 222.954208,170.065338 224.351883,170.213272 
	C226.517426,170.442490 228.904114,172.258209 230.298767,174.086472 
	C230.782227,174.720261 228.624786,177.412567 227.599365,179.120087 
	C227.364822,179.510651 226.823547,179.716995 226.103546,180.182495 
z"/>
<path fill="#D9DEE2" opacity="1.000000" stroke="none" 
	d="
M307.491058,188.698975 
	C309.104919,188.096390 310.761658,188.025711 311.743744,187.175659 
	C313.273071,185.851898 314.344177,183.998810 315.876160,182.154083 
	C318.180756,187.649017 314.283905,191.369797 311.336243,195.153900 
	C308.896515,198.285934 305.483734,198.883331 301.708282,196.034241 
	C302.629211,195.326981 303.448303,194.697891 304.609314,193.948639 
	C305.207397,193.381210 305.463623,192.933975 305.719818,192.486725 
	C306.223724,191.285004 306.727631,190.083267 307.491058,188.698975 
z"/>
<path fill="#373636" opacity="1.000000" stroke="none" 
	d="
M194.005920,187.023361 
	C192.395691,186.302094 190.999176,185.296371 188.755325,183.680450 
	C191.243912,182.432129 192.883774,181.818512 194.276321,180.849503 
	C195.549545,179.963547 197.369949,178.809906 197.547165,177.573303 
	C198.732285,169.303238 202.719589,168.925247 209.922668,170.634796 
	C204.878494,176.217163 199.549057,181.478027 194.005920,187.023361 
z"/>
<path fill="#D9DEE2" opacity="1.000000" stroke="none" 
	d="
M222.831635,142.809479 
	C223.161530,142.926132 222.710373,143.044342 222.477722,143.060379 
	C221.877304,142.698578 221.545517,142.037262 221.136368,141.985321 
	C214.789566,141.179703 211.793091,137.036896 209.985306,130.029266 
	C214.884323,132.952179 219.001083,135.405563 223.108078,137.875198 
	C223.208450,137.935562 223.274780,138.211563 223.222183,138.323883 
	C223.166397,138.443054 222.949600,138.486862 222.373962,138.396698 
	C221.483215,138.231445 221.021622,138.233078 220.560043,138.234711 
	C220.797775,138.706558 221.035522,139.178421 221.273254,139.650284 
	C221.682755,140.664474 222.092255,141.678650 222.831635,142.809479 
z"/>
<path fill="#D0332A" opacity="1.000000" stroke="none" 
	d="
M255.846680,128.388885 
	C262.519379,124.218948 267.490540,127.802940 268.051453,137.454651 
	C264.008240,134.798615 260.015015,131.741928 255.846680,128.388885 
z"/>
<path fill="#E35F3F" opacity="1.000000" stroke="none" 
	d="
M244.698135,199.217865 
	C245.011749,199.029358 245.046967,199.451935 245.043594,199.663879 
	C244.699951,200.876678 244.137024,201.859802 244.055664,202.881287 
	C243.537933,209.382782 241.648941,211.075806 234.329224,210.852722 
	C236.982819,206.146988 238.069092,200.618607 244.698135,199.217865 
z"/>
<path fill="#D0DCE4" opacity="1.000000" stroke="none" 
	d="
M205.595779,398.099945 
	C203.532013,398.100677 201.889633,398.100677 199.976807,398.100677 
	C199.976807,394.028137 199.976807,390.276581 199.976807,386.177429 
	C202.667801,386.177429 205.364609,386.177429 208.061432,386.177429 
	C208.111755,386.506622 208.162079,386.835815 208.212402,387.165009 
	C206.961334,387.349365 205.664688,387.389221 204.473862,387.764648 
	C203.551544,388.055389 202.761551,388.765869 201.912735,389.289795 
	C202.709595,389.842651 203.440216,390.575287 204.321182,390.899933 
	C205.281036,391.253693 206.380371,391.228943 207.874680,391.430786 
	C205.555756,392.780640 203.748444,393.832672 201.941132,394.884705 
	C203.985367,395.493225 206.031006,396.097198 208.069824,396.723419 
	C208.175079,396.755798 208.222015,396.977997 208.553757,397.577179 
	C207.621902,397.768951 206.819519,397.934082 205.595779,398.099945 
z"/>
<path fill="#D0332A" opacity="1.000000" stroke="none" 
	d="
M275.989502,144.012970 
	C277.842468,145.023361 280.321533,145.612793 281.366241,147.166611 
	C282.343689,148.620392 281.800568,151.096512 281.926666,153.122681 
	C280.067688,153.067505 277.779694,153.662247 276.459564,152.790787 
	C274.850800,151.728790 274.055969,149.433777 272.956543,147.335220 
	C273.004028,146.998352 272.958160,147.043640 272.958160,147.043640 
	C273.976379,146.253433 274.994629,145.463226 275.988953,144.338593 
	C275.965027,144.004166 275.989502,144.012970 275.989502,144.012970 
z"/>
<path fill="#E1E4E6" opacity="1.000000" stroke="none" 
	d="
M265.549347,392.752991 
	C265.662048,388.959625 266.471710,385.436218 270.618073,386.063599 
	C272.443634,386.339783 275.062805,389.353821 275.130859,391.205353 
	C275.212555,393.428864 273.480988,396.922363 271.601501,397.751801 
	C268.201782,399.252197 266.157288,396.615356 265.549347,392.752991 
M272.007751,388.069489 
	C267.965454,386.691620 267.310486,389.562469 267.576111,392.222595 
	C267.721069,393.673889 269.593231,394.952667 270.686432,396.309265 
	C271.610901,394.495636 272.663361,392.730713 273.383240,390.839233 
	C273.604462,390.257904 272.916077,389.330444 272.007751,388.069489 
z"/>
<path fill="#E1E4E6" opacity="1.000000" stroke="none" 
	d="
M252.697052,388.079834 
	C253.781479,385.779968 256.753632,384.783417 258.238403,386.571442 
	C259.182617,387.708466 259.296600,390.073669 258.876007,391.645508 
	C258.496887,393.062256 256.883514,394.148773 255.494278,395.749969 
	C256.645599,395.974884 257.377136,396.087036 258.091888,396.266174 
	C258.785034,396.439880 259.460938,396.682373 260.044006,397.673828 
	C257.402893,397.673828 254.761780,397.673828 251.039902,397.673828 
	C252.796371,395.793701 254.272339,394.448242 255.449295,392.878571 
	C256.362579,391.660553 256.902496,390.162567 257.608368,388.789001 
	C256.114655,388.556824 254.620972,388.324615 252.697052,388.079834 
z"/>
<path fill="#E1E4E6" opacity="1.000000" stroke="none" 
	d="
M297.943665,393.443115 
	C298.986420,391.662354 299.770416,390.170044 300.554382,388.677765 
	C298.778229,388.296631 297.002106,387.915497 295.225952,387.534393 
	C295.155060,387.239838 295.084167,386.945312 295.013245,386.650787 
	C297.212463,386.650787 300.287933,385.721558 301.451996,386.819244 
	C305.475006,390.613037 300.338196,392.580780 298.738281,395.730530 
	C300.295502,396.100464 301.693237,396.432495 303.090973,396.764526 
	C303.074127,397.038696 303.057312,397.312866 303.040466,397.587036 
	C300.341278,397.587036 297.642090,397.587036 294.097260,397.587036 
	C295.556488,396.018829 296.620667,394.875183 297.943665,393.443115 
z"/>
<path fill="#D0DCE4" opacity="1.000000" stroke="none" 
	d="
M235.870148,387.786530 
	C234.844254,391.178345 234.208862,394.517151 233.499496,398.244629 
	C229.836960,395.003113 235.897217,387.797424 228.436905,386.261230 
	C231.631363,386.261230 234.825821,386.261230 238.020294,386.261230 
	C238.074539,386.477386 238.128784,386.693542 238.183029,386.909698 
	C237.542236,387.184326 236.901443,387.458923 235.870148,387.786530 
z"/>
<path fill="#D0DCE4" opacity="1.000000" stroke="none" 
	d="
M285.932587,391.620056 
	C286.832947,387.585266 286.832947,387.585266 280.746582,387.940552 
	C283.097809,384.952087 286.789581,384.793732 287.750885,386.962708 
	C288.776062,389.275635 287.061951,392.802612 286.499268,396.056763 
	C286.649414,396.100525 288.055298,396.510376 289.461151,396.920197 
	C289.420532,397.185120 289.379913,397.450043 289.339294,397.714966 
	C286.612061,397.714966 283.884827,397.714966 281.157623,397.714966 
	C280.739075,397.225098 280.320557,396.735199 279.902008,396.245331 
	C281.828552,394.804382 283.755066,393.363403 285.932587,391.620056 
z"/>
<path fill="#D0DCE4" opacity="1.000000" stroke="none" 
	d="
M220.574219,385.856873 
	C221.568115,386.262970 222.192856,386.622406 223.605652,387.435211 
	C220.713516,387.784851 218.722549,388.025574 215.728714,388.387512 
	C218.984528,391.099121 221.283920,393.014191 223.583313,394.929230 
	C223.387177,395.171967 223.191055,395.414673 222.994919,395.657410 
	C221.743027,394.761627 220.458817,393.907196 219.247086,392.960052 
	C217.608795,391.679382 216.026138,390.327576 214.419601,389.006287 
	C216.348083,387.940948 218.276566,386.875580 220.574219,385.856873 
z"/>
<path fill="#D0332A" opacity="1.000000" stroke="none" 
	d="
M273.026550,146.975281 
	C272.758636,146.769379 272.468262,146.586533 272.177856,146.403687 
	C272.305847,146.219147 272.433838,146.034592 272.561798,145.850037 
	C272.709015,146.083694 272.856232,146.317352 272.980804,146.797333 
	C272.958160,147.043640 273.004028,146.998352 273.026550,146.975281 
z"/>
<path fill="#D0332A" opacity="1.000000" stroke="none" 
	d="
M275.945618,143.998688 
	C275.926239,143.993210 275.901764,143.770004 275.901764,143.770004 
	C275.901764,143.770004 275.820099,144.050507 275.904785,144.031738 
	C275.989502,144.012970 275.965027,144.004166 275.945618,143.998688 
z"/>
<path fill="#373636" opacity="1.000000" stroke="none" 
	d="
M229.767975,151.690826 
	C230.994873,151.457809 231.860458,151.072113 232.616501,151.225677 
	C234.618576,151.632294 238.204559,152.155884 238.253342,152.840179 
	C238.427933,155.289062 237.621979,157.915558 236.664337,160.261566 
	C236.425537,160.846588 234.032791,161.117310 232.966263,160.691132 
	C230.037201,159.520706 225.986588,159.194778 225.918594,154.903961 
	C225.902405,153.882355 228.150253,152.824905 229.767975,151.690826 
z"/>
<path fill="#D0332A" opacity="1.000000" stroke="none" 
	d="
M317.918335,173.958282 
	C312.646698,172.442444 312.186676,167.822296 310.380951,162.898956 
	C317.135681,164.261932 315.984131,169.808426 317.885620,173.659912 
	C317.885132,174.044708 317.885162,173.972504 317.918335,173.958282 
z"/>
<path fill="#185179" opacity="1.000000" stroke="none" 
	d="
M282.988464,120.317902 
	C283.857178,120.066330 284.898010,120.170334 285.985657,120.670425 
	C285.075195,120.935501 284.117920,120.804489 282.988464,120.317902 
z"/>
<path fill="#2A5E83" opacity="1.000000" stroke="none" 
	d="
M265.166687,348.333679 
	C265.928802,352.347534 264.040894,352.606354 260.944153,351.851776 
	C261.418274,345.277069 261.887421,338.771057 262.356567,332.265076 
	C262.826080,332.226990 263.295624,332.188934 263.765167,332.150848 
	C264.223175,337.403015 264.681183,342.655151 265.166687,348.333679 
z"/>
<path fill="#185179" opacity="1.000000" stroke="none" 
	d="
M164.710938,348.585358 
	C166.253525,351.268921 167.524124,354.192383 168.384995,357.231873 
	C168.559204,357.846893 167.184418,358.900665 166.523758,359.752167 
	C165.667480,358.919403 164.248840,358.192810 164.067642,357.232635 
	C163.641174,354.972900 163.805283,352.601715 163.601898,349.860229 
	C163.747040,349.251923 164.020767,349.059052 164.710938,348.585358 
z"/>
<path fill="#185179" opacity="1.000000" stroke="none" 
	d="
M305.402679,192.755753 
	C305.463623,192.933975 305.207397,193.381210 304.715637,193.711792 
	C304.681885,193.405014 304.883698,193.214890 305.402679,192.755753 
z"/>
<path fill="#185179" opacity="1.000000" stroke="none" 
	d="
M221.536835,139.406433 
	C221.035522,139.178421 220.797775,138.706558 220.560043,138.234711 
	C221.021622,138.233078 221.483215,138.231445 222.130951,138.446808 
	C222.144897,138.830063 221.972656,138.996323 221.536835,139.406433 
z"/>
<path fill="#2A5E83" opacity="1.000000" stroke="none" 
	d="
M272.325989,388.315491 
	C272.916077,389.330444 273.604462,390.257904 273.383240,390.839233 
	C272.663361,392.730713 271.610901,394.495636 270.686432,396.309265 
	C269.593231,394.952667 267.721069,393.673889 267.576111,392.222595 
	C267.310486,389.562469 267.965454,386.691620 272.325989,388.315491 
z"/>
</svg>